<svg width="512" height="512" viewBox="0 0 512 512" fill="none" xmlns="http://www.w3.org/2000/svg">
<path d="M235.391 24.2018C239.956 23.1535 245.781 22.0521 248.329 21.7602C250.877 21.4683 255.959 21.1365 259.608 21.0171C263.257 20.8977 271.325 21.4152 277.522 22.1583C283.719 22.9014 294.467 25.3563 301.407 27.6121C308.347 29.8679 319.984 34.7113 327.283 38.3604C334.581 42.0228 342.052 46.07 343.87 47.3705C345.701 48.6709 351.964 52.0811 357.803 54.9606C363.641 57.8269 372.001 60.9452 376.38 61.8741C380.759 62.8029 386.438 64.183 393.63 66.2663L388.654 70.7381C385.921 73.193 382.63 75.1834 381.356 75.1569C380.082 75.1171 378.317 75.8602 377.442 76.8156C376.194 78.1691 376.818 79.9339 380.427 85.1621C382.948 88.8113 386.199 95.9768 387.659 101.086C389.543 107.654 390.313 114.355 390.313 123.976C390.313 135.48 390.008 137.471 388.323 136.913C387.075 136.502 386.306 137.112 386.266 138.572C386.239 139.846 385.284 138.201 384.156 134.923C383.015 131.632 380.507 127.266 375.053 121.481L374.31 124.546C373.899 126.245 373.925 129.416 374.35 131.606C374.801 133.861 373.938 140.47 372.346 146.866C370.82 153.062 367.887 161.727 365.844 166.106C363.787 170.485 361.876 175.262 361.584 176.722C361.293 178.182 361.346 181.167 361.704 183.357C362.062 185.546 364.185 189.726 366.415 192.646C369.214 196.295 370.223 198.789 369.639 200.607C369.175 202.067 367.105 205.053 365.048 207.242C362.991 209.431 360.894 213.014 360.39 215.204C359.886 217.393 357.975 221.865 356.144 225.156C354.313 228.434 350.358 233.715 347.346 236.886C344.347 240.044 338.442 244.37 334.249 246.507C330.056 248.63 323.779 251.337 320.316 252.504C316.853 253.685 311.917 254.933 309.369 255.291C306.821 255.636 301.022 256.021 296.497 256.127C291.972 256.246 287.501 257.029 286.545 257.879C285.178 259.099 286.054 260.108 290.791 262.788C294.082 264.659 300.385 269.941 304.817 274.532C309.236 279.123 316.004 286.461 319.838 290.84C325.637 297.475 326.685 299.412 326.049 302.451C325.412 305.516 326.102 306.75 330.268 310.094C333.002 312.284 335.696 314.075 336.24 314.075C336.784 314.062 339.172 314.951 341.547 316.026C343.923 317.114 348.54 318.786 351.831 319.755C356.714 321.188 359.262 321.214 365.764 319.834C370.143 318.919 375.823 318.507 378.37 318.919C380.918 319.33 384.355 320.498 386 321.506C387.646 322.528 389.875 325.447 390.976 327.995C392.343 331.18 392.675 334.404 392.038 338.279C391.467 341.782 389.583 345.604 387.062 348.377C383.121 352.703 382.802 352.809 375.053 352.066C370.674 351.641 366.494 350.673 365.764 349.89C365.035 349.12 357.869 347.939 349.841 347.262C341.813 346.599 331.662 345.073 327.283 343.892C322.904 342.698 318.127 341.092 316.667 340.296C315.207 339.5 311.479 336.859 308.374 334.417C305.268 331.976 301.845 330.277 300.744 330.649C299.417 331.091 298.753 333.082 298.753 336.62C298.753 339.539 298.554 343.573 298.302 345.577C298.05 347.581 297.373 351.323 296.802 353.871C296.232 356.418 295.847 360.001 295.953 361.832C296.073 363.65 297.187 365.72 298.448 366.424C299.709 367.127 304.326 370.431 308.705 373.762C315.128 378.658 316.587 380.463 316.282 383.103C316.07 384.908 316.959 387.867 318.246 389.698C319.546 391.516 321.457 394.502 322.506 396.333C323.687 398.403 324.443 403.658 324.496 410.266C324.562 416.105 324.178 423.27 323.66 426.19C323.143 429.109 323.156 432.254 323.673 433.169C324.204 434.085 327.614 435.054 331.263 435.306C334.913 435.571 339.836 436.752 342.211 437.947C344.586 439.141 347.744 441.768 349.217 443.772C350.703 445.776 351.898 448.761 351.871 450.407C351.845 452.371 350.465 454.069 347.85 455.383C345.661 456.484 338.044 458.846 330.932 460.651C323.819 462.455 313.522 464.645 308.042 465.521C299.576 466.861 297.599 466.808 294.772 465.109C291.933 463.397 291.203 461.5 289.743 451.946C288.801 445.815 287.315 436.049 286.426 430.277C285.537 424.491 284.223 418.905 283.493 417.87C282.392 416.291 281.45 416.556 277.854 419.422C275.478 421.32 272.055 422.872 270.224 422.872C268.366 422.872 264.12 420.643 260.603 417.83C257.14 415.043 252.814 411.991 250.983 411.023C249.165 410.067 246.776 409.563 245.675 409.908C244.574 410.266 242.198 414.274 240.367 418.838C238.549 423.403 235.709 428.565 234.064 430.317C231.662 432.864 230.229 433.329 226.766 432.678C222.878 431.949 221.975 432.44 217.636 437.655C214.982 440.839 208.268 447.023 202.708 451.402C194.653 457.758 192.676 460 192.942 462.535C193.167 464.791 195.078 466.702 199.576 469.17C203.04 471.067 206.53 474.119 207.326 475.951C208.135 477.768 208.427 480.913 207.989 482.917C207.366 485.757 206.079 486.858 202.217 487.893C199.484 488.623 193.353 489.605 188.616 490.069C181.676 490.746 178.823 490.401 174.019 488.331C169.534 486.394 165.805 482.957 159.051 474.544C154.102 468.387 150.081 462.601 150.094 461.686C150.121 460.77 150.93 458.09 151.912 455.714C152.894 453.339 158.64 445.431 164.691 438.132C170.728 430.834 176.501 423.523 177.509 421.877C178.504 420.232 179.022 418.294 178.664 417.565C178.305 416.835 177.257 416.251 176.341 416.277C175.426 416.304 173.634 415.11 172.361 413.623C170.131 411.049 170.184 410.492 173.648 400.646C176.832 391.583 177.231 388.624 177.018 375.765C176.859 366.211 177.469 358.648 178.77 353.871C179.858 349.85 181.304 345.378 181.968 343.918C182.631 342.459 184.117 338.279 185.259 334.63C186.413 330.981 187.886 326.801 188.536 325.341C189.186 323.881 190.367 320.75 191.164 318.375C191.946 315.999 192.291 313.173 191.933 312.072C191.575 310.97 190.673 310.373 189.943 310.745C189.213 311.103 186.479 311.554 183.879 311.74C179.659 312.032 177.841 313.584 155.19 339.938L156.105 345.909C156.61 349.186 157.565 352.928 158.229 354.202C158.958 355.622 158.905 357.56 158.096 359.178C157.211 360.939 155.995 361.554 154.447 361.023C153.173 360.572 151.222 359.948 150.134 359.63C148.873 359.271 146.817 361.262 144.495 365.097C141.469 370.099 140.169 371.121 136.865 371.121C134.675 371.121 131.543 370.378 129.898 369.462C128.253 368.547 125.267 366.158 123.263 364.155C121.26 362.151 119.535 360.054 119.442 359.51C119.349 358.966 119.163 356.724 119.017 354.534C118.884 352.345 119.548 348.616 120.516 346.241C121.485 343.865 123.94 339.991 125.97 337.615C128.014 335.24 133.335 325.832 137.793 316.716C144.229 303.592 147.892 297.979 155.323 289.845C160.498 284.192 164.731 278.659 164.731 277.571C164.731 276.469 166.376 274.386 168.38 272.94C170.383 271.493 172.772 269.702 173.688 268.959C174.603 268.216 180.123 265.23 185.962 262.311C191.801 259.391 199.709 256.339 203.544 255.53C207.379 254.72 211.081 253.526 211.771 252.876C212.461 252.226 214.067 251.695 215.327 251.695C216.588 251.695 218.552 250.793 219.706 249.705C221.033 248.444 221.365 247.117 220.622 246.055C219.972 245.14 214.146 241.146 207.684 237.178C201.209 233.197 192.928 227.73 189.279 225.023C185.63 222.316 178.093 215.416 172.546 209.697C166.986 203.964 160.445 196.295 158.016 192.646C155.588 188.996 151.925 182.428 149.882 178.049C147.838 173.67 145.848 168.588 145.45 166.77C145.052 164.939 144.495 163.147 144.203 162.789C143.911 162.417 143.274 158.543 142.796 154.164C142.305 149.785 141.668 145.751 141.376 145.207C141.084 144.663 140.832 138.692 140.806 131.937C140.792 125.183 141.044 117.872 141.363 115.682C141.668 113.493 142.955 108.118 144.203 103.74C145.45 99.3606 147.838 92.7921 149.524 89.143C151.209 85.4939 155.044 79.2174 158.056 75.21C161.055 71.1893 165.58 66.2663 168.101 64.2626C170.622 62.2589 172.692 59.4192 172.692 57.9596C172.692 56.4999 171.644 54.9474 170.37 54.5095C169.096 54.0716 165.965 52.9569 158.759 50.3428L163.072 48.1799C165.978 46.7202 170.078 46.1231 183.971 46.6804L184.303 41.3726C184.542 37.6571 185.935 34.499 188.948 30.8631C192.079 27.0946 193.764 26.0065 195.078 26.8823C196.378 27.7581 196.617 29.43 195.927 32.7474C195.397 35.2952 194.733 38.1348 194.441 39.0504C194.162 39.966 194.826 41.0011 195.914 41.3726C197.002 41.7309 201.036 40.0589 204.871 37.6306C208.706 35.2023 215.274 31.6195 219.468 29.6689C223.661 27.7182 230.826 25.2501 235.391 24.2018Z" fill="#3D405B"/>
</svg>
