<svg width="1615" height="256" viewBox="0 0 1615 256" fill="none" xmlns="http://www.w3.org/2000/svg">
<path fill-rule="evenodd" clip-rule="evenodd" d="M160.9 134.863C165.256 134.793 172.983 135.356 178.061 136.104C183.147 136.861 188.169 138.004 194.338 139.43C200.536 141.017 203.544 141.767 211.938 144.446C223.246 148.055 229.2 148.275 239.514 155.151C242.942 157.437 246.197 165.169 246.224 167.43C246.25 170.642 245.783 172.033 244.059 173.828C242.853 175.086 239.878 176.952 237.458 177.973C235.038 179.002 223.758 182.171 212.38 185.013C196.145 189.078 190.284 190.187 185.101 190.16C179.997 190.143 176.811 189.527 171.021 187.442C166.911 185.954 160.072 183.588 155.84 182.171C151.607 180.755 141.708 178.616 133.842 177.41C125.975 176.214 114.791 174.207 108.983 172.966C103.175 171.725 97.2616 170.23 95.8442 169.658C94.2957 169.016 92.8071 167.467 92.1031 165.743C91.4697 164.168 90.9425 161.201 90.9424 159.142C90.9425 157.083 91.6379 154.019 92.4825 152.339C93.363 150.579 95.5282 148.431 97.5428 147.305C99.4801 146.223 106.017 144.157 112.061 142.705C118.115 141.253 128.606 139.078 135.382 137.872C142.156 136.667 148.886 135.524 150.34 135.33C151.792 135.145 156.544 134.934 160.9 134.863ZM181.228 142.858C159.393 137.589 161.598 139.003 153.652 139.875C148.575 140.429 137.597 144.181 130.822 145.589C124.046 146.997 116.179 149.14 112.061 150.16C107.952 151.19 101.108 151.303 102.601 154.912C102.601 154.912 103.148 156.064 106.121 157.102C108.787 158.026 118.881 160.544 128.561 162.692C138.24 164.839 153.491 168.464 162.44 170.752C174.019 173.708 180.496 174.913 184.878 174.939C188.265 174.957 193.713 174.482 196.978 173.892C200.242 173.303 202.926 172.519 202.927 172.158C202.931 171.797 200.258 171.208 196.987 170.848C193.714 170.487 188.75 169.696 185.96 169.089C183.163 168.482 180.894 167.68 180.902 167.319C180.916 166.958 186.958 166.658 194.338 166.667C203.982 166.676 210.856 166.158 218.757 164.821C224.81 163.792 234.312 162.364 234.822 159.303C235.965 152.446 181.228 142.858 181.228 142.858Z" fill="#D27056"/>
<path fill-rule="evenodd" clip-rule="evenodd" d="M86.3682 182.638C91.7459 182.545 101.286 183.292 107.554 184.285C113.834 185.289 120.034 186.805 127.649 188.696C135.302 190.802 139.016 191.797 149.379 195.351C163.339 200.14 170.689 200.431 183.423 209.554C187.656 212.586 191.674 222.844 191.707 225.844C191.74 230.104 191.162 231.95 189.034 234.331C187.546 236.001 183.873 238.476 180.885 239.83C177.897 241.196 163.971 245.4 149.924 249.171C129.882 254.564 122.645 256.034 116.246 255.999C109.945 255.976 106.011 255.159 98.8628 252.393C93.7893 250.42 85.3464 247.28 80.1209 245.401C74.8949 243.521 62.6745 240.684 52.9629 239.084C43.2508 237.497 29.4425 234.834 22.272 233.188C15.1025 231.542 7.80161 229.558 6.05165 228.799C4.13993 227.947 2.3022 225.893 1.43299 223.605C0.650985 221.515 0.000101179 217.58 0 214.849C0.000202615 212.117 0.858652 208.052 1.90147 205.822C2.98842 203.488 5.66158 200.639 8.14878 199.145C10.5405 197.708 18.6106 194.967 26.0722 193.041C33.5467 191.115 46.4992 188.229 54.8644 186.63C63.2272 185.031 71.5356 183.514 73.3307 183.257C75.1234 183.012 80.9908 182.731 86.3682 182.638ZM111.465 193.245C84.5081 186.254 87.2303 188.13 77.4203 189.286C71.1515 190.022 57.5992 194.999 49.2344 196.867C40.8693 198.735 31.1562 201.578 26.0722 202.932C20.9992 204.298 12.5497 204.448 14.3933 209.237C14.3933 209.237 15.0688 210.765 18.7392 212.142C22.0311 213.368 34.4927 216.709 46.4428 219.557C58.393 222.406 77.2212 227.215 88.2697 230.251C102.564 234.172 110.56 235.771 115.971 235.806C120.153 235.829 126.879 235.199 130.91 234.417C134.939 233.635 138.252 232.595 138.254 232.116C138.259 231.637 134.958 230.856 130.921 230.378C126.879 229.899 120.751 228.85 117.307 228.044C113.854 227.239 111.053 226.175 111.063 225.696C111.079 225.218 118.539 224.82 127.649 224.831C139.556 224.843 148.042 224.157 157.797 222.382C165.27 221.017 177.001 219.123 177.631 215.062C179.042 205.965 111.465 193.245 111.465 193.245Z" fill="#D27056"/>
<path fill-rule="evenodd" clip-rule="evenodd" d="M266.764 116.575C269.457 116.532 274.235 116.881 277.374 117.345C280.518 117.814 283.623 118.522 287.437 119.406C291.269 120.391 293.128 120.855 298.318 122.516C305.309 124.754 308.989 124.89 315.366 129.153C317.486 130.57 319.498 135.363 319.514 136.766C319.53 138.756 319.241 139.619 318.175 140.732C317.43 141.512 315.591 142.669 314.095 143.301C312.599 143.94 305.625 145.904 298.591 147.666C288.554 150.186 284.93 150.873 281.726 150.857C278.571 150.846 276.601 150.465 273.021 149.172C270.481 148.25 266.253 146.783 263.636 145.904C261.019 145.026 254.9 143.7 250.036 142.953C245.173 142.211 238.258 140.967 234.668 140.197C231.077 139.428 227.421 138.501 226.545 138.147C225.588 137.748 224.667 136.788 224.232 135.719C223.841 134.743 223.515 132.904 223.515 131.627C223.515 130.351 223.945 128.451 224.467 127.409C225.011 126.318 226.35 124.987 227.595 124.289C228.793 123.618 232.834 122.337 236.571 121.437C240.314 120.537 246.8 119.188 250.989 118.441C255.176 117.694 259.337 116.985 260.236 116.865C261.133 116.75 264.072 116.619 266.764 116.575ZM279.332 121.532C265.833 118.265 267.196 119.142 262.284 119.682C259.145 120.026 252.358 122.352 248.169 123.225C243.98 124.098 239.116 125.426 236.571 126.059C234.03 126.697 229.799 126.767 230.722 129.005C230.722 129.005 231.061 129.719 232.898 130.363C234.547 130.935 240.787 132.497 246.771 133.828C252.756 135.159 262.184 137.406 267.717 138.825C274.875 140.657 278.879 141.404 281.588 141.421C283.683 141.432 287.051 141.137 289.069 140.772C291.087 140.406 292.746 139.92 292.747 139.696C292.749 139.473 291.097 139.108 289.075 138.884C287.051 138.66 283.982 138.17 282.257 137.794C280.528 137.417 279.126 136.92 279.13 136.696C279.139 136.473 282.874 136.287 287.437 136.292C293.399 136.298 297.648 135.977 302.533 135.148C306.276 134.51 312.15 133.625 312.465 131.727C313.172 127.476 279.332 121.532 279.332 121.532Z" fill="#D27056"/>
<path d="M167.886 1.11062C169.469 0.746998 171.49 0.364966 172.373 0.263705C173.257 0.162443 175.02 0.0473738 176.286 0.00594866C177.551 -0.0354764 180.35 0.144032 182.499 0.401788C184.649 0.659545 188.377 1.51106 190.784 2.29353C193.192 3.07601 197.228 4.75603 199.76 6.02179C202.291 7.29216 204.883 8.69601 205.513 9.14709C206.149 9.59816 208.321 10.7811 210.346 11.7799C212.372 12.7741 215.271 13.8557 216.79 14.1779C218.309 14.5001 220.279 14.9788 222.774 15.7015L221.048 17.2526C220.1 18.1041 218.958 18.7945 218.516 18.7853C218.074 18.7715 217.462 19.0293 217.158 19.3607C216.726 19.8302 216.942 20.4423 218.194 22.2558C219.069 23.5216 220.196 26.0071 220.703 27.7792C221.356 30.0576 221.623 32.382 221.623 35.719C221.623 39.7096 221.517 40.4 220.933 40.2067C220.5 40.064 220.233 40.2757 220.219 40.782C220.21 41.2239 219.879 40.6532 219.487 39.5163C219.092 38.3748 218.222 36.8605 216.33 34.8537L216.072 35.9169C215.93 36.5061 215.939 37.6061 216.086 38.3656C216.243 39.1481 215.943 41.4402 215.391 43.6588C214.862 45.8083 213.844 48.8139 213.136 50.3328C212.422 51.8518 211.759 53.5088 211.658 54.0151C211.557 54.5214 211.575 55.557 211.7 56.3165C211.824 57.0759 212.56 58.5258 213.334 59.5384C214.305 60.8042 214.655 61.6695 214.452 62.3001C214.291 62.8064 213.573 63.842 212.859 64.6015C212.146 65.3609 211.419 66.6037 211.244 67.3632C211.069 68.1226 210.406 69.6738 209.771 70.8152C209.136 71.9521 207.764 73.784 206.719 74.8841C205.679 75.9796 203.631 77.4801 202.176 78.2211C200.722 78.9576 198.545 79.8965 197.343 80.3016C196.142 80.7112 194.43 81.1439 193.546 81.2682C192.662 81.3878 190.651 81.5213 189.081 81.5581C187.512 81.5996 185.961 81.8711 185.629 82.1657C185.155 82.5892 185.459 82.939 187.102 83.8688C188.244 84.5177 190.43 86.3497 191.967 87.9422C193.5 89.5348 195.848 92.0801 197.178 93.599C199.189 95.9004 199.553 96.5724 199.332 97.6265C199.111 98.6897 199.35 99.1178 200.796 100.278C201.744 101.037 202.678 101.659 202.867 101.659C203.056 101.654 203.884 101.962 204.708 102.335C205.532 102.713 207.134 103.293 208.275 103.629C209.969 104.126 210.853 104.135 213.108 103.656C214.627 103.339 216.597 103.196 217.481 103.339C218.364 103.481 219.557 103.886 220.127 104.236C220.698 104.591 221.471 105.603 221.853 106.487C222.327 107.592 222.442 108.71 222.222 110.054C222.024 111.269 221.37 112.595 220.495 113.557C219.128 115.057 219.018 115.094 216.33 114.836C214.811 114.689 213.361 114.353 213.108 114.081C212.855 113.814 210.369 113.405 207.585 113.17C204.8 112.94 201.279 112.411 199.76 112.001C198.241 111.587 196.584 111.03 196.078 110.754C195.571 110.477 194.278 109.562 193.201 108.715C192.124 107.868 190.936 107.279 190.554 107.407C190.094 107.561 189.864 108.251 189.864 109.479C189.864 110.491 189.795 111.891 189.707 112.586C189.62 113.281 189.385 114.579 189.187 115.462C188.989 116.346 188.856 117.589 188.893 118.224C188.934 118.855 189.321 119.573 189.758 119.817C190.195 120.06 191.797 121.207 193.316 122.362C195.544 124.06 196.05 124.686 195.944 125.602C195.871 126.228 196.179 127.255 196.625 127.89C197.076 128.52 197.739 129.556 198.103 130.191C198.513 130.909 198.775 132.732 198.793 135.024C198.816 137.049 198.683 139.535 198.503 140.548C198.324 141.56 198.328 142.651 198.508 142.969C198.692 143.286 199.875 143.622 201.141 143.71C202.407 143.802 204.114 144.211 204.938 144.626C205.762 145.04 206.857 145.951 207.368 146.646C207.884 147.341 208.298 148.377 208.289 148.948C208.28 149.629 207.801 150.218 206.894 150.674C206.135 151.056 203.493 151.875 201.026 152.501C198.559 153.127 194.987 153.886 193.086 154.19C190.149 154.655 189.463 154.637 188.483 154.047C187.498 153.454 187.245 152.796 186.739 149.481C186.412 147.355 185.896 143.967 185.588 141.965C185.28 139.958 184.824 138.021 184.571 137.662C184.189 137.114 183.862 137.206 182.615 138.2C181.791 138.858 180.603 139.397 179.968 139.397C179.324 139.397 177.851 138.624 176.631 137.648C175.43 136.681 173.929 135.622 173.294 135.286C172.663 134.955 171.835 134.78 171.453 134.9C171.071 135.024 170.247 136.414 169.612 137.998C168.981 139.581 167.996 141.371 167.425 141.979C166.592 142.863 166.095 143.024 164.894 142.798C163.545 142.545 163.232 142.715 161.727 144.524C160.807 145.629 158.478 147.774 156.549 149.293C153.755 151.498 153.069 152.275 153.161 153.155C153.24 153.937 153.902 154.6 155.463 155.456C156.664 156.114 157.875 157.173 158.151 157.808C158.431 158.439 158.533 159.529 158.381 160.224C158.165 161.209 157.718 161.591 156.379 161.95C155.43 162.204 153.304 162.544 151.661 162.705C149.254 162.94 148.264 162.82 146.598 162.102C145.042 161.43 143.749 160.238 141.406 157.32C139.689 155.184 138.294 153.178 138.299 152.86C138.308 152.542 138.589 151.613 138.929 150.789C139.27 149.965 141.263 147.222 143.362 144.69C145.456 142.158 147.458 139.622 147.808 139.052C148.153 138.481 148.333 137.809 148.209 137.556C148.084 137.303 147.721 137.1 147.403 137.109C147.086 137.118 146.464 136.704 146.022 136.189C145.249 135.296 145.268 135.102 146.469 131.687C147.574 128.543 147.712 127.517 147.638 123.057C147.583 119.743 147.794 117.119 148.246 115.462C148.623 114.068 149.125 112.517 149.355 112.01C149.585 111.504 150.1 110.054 150.496 108.788C150.897 107.522 151.408 106.073 151.633 105.566C151.859 105.06 152.268 103.974 152.545 103.15C152.816 102.326 152.936 101.346 152.811 100.964C152.687 100.581 152.374 100.374 152.121 100.503C151.868 100.627 150.92 100.784 150.018 100.848C148.554 100.95 147.923 101.488 140.066 110.629L140.384 112.701C140.559 113.838 140.89 115.135 141.12 115.577C141.374 116.07 141.355 116.742 141.074 117.303C140.768 117.914 140.346 118.127 139.809 117.943C139.367 117.787 138.69 117.57 138.313 117.46C137.875 117.336 137.162 118.026 136.357 119.356C135.307 121.091 134.856 121.446 133.71 121.446C132.95 121.446 131.864 121.188 131.293 120.871C130.723 120.553 129.687 119.724 128.992 119.029C128.297 118.334 127.699 117.607 127.666 117.418C127.634 117.23 127.57 116.452 127.519 115.692C127.473 114.933 127.703 113.64 128.039 112.816C128.375 111.992 129.227 110.648 129.931 109.824C130.64 109 132.486 105.737 134.032 102.574C136.264 98.0223 137.535 96.0753 140.112 93.2538C141.907 91.293 143.376 89.3737 143.376 88.9962C143.376 88.6142 143.947 87.8916 144.642 87.3899C145.337 86.8882 146.165 86.2668 146.483 86.0091C146.8 85.7513 148.715 84.7157 150.74 83.7031C152.765 82.6904 155.509 81.6318 156.839 81.351C158.169 81.0703 159.453 80.656 159.693 80.4305C159.932 80.2049 160.489 80.0208 160.926 80.0208C161.363 80.0208 162.045 79.7078 162.445 79.3304C162.905 78.8931 163.02 78.4329 162.763 78.0646C162.537 77.747 160.517 76.3616 158.275 74.9854C156.029 73.6045 153.157 71.7082 151.891 70.7692C150.625 69.8303 148.011 67.4368 146.087 65.453C144.158 63.4646 141.889 60.8042 141.047 59.5384C140.204 58.2726 138.934 55.9943 138.225 54.4753C137.516 52.9564 136.826 51.1936 136.688 50.563C136.55 49.9278 136.357 49.3064 136.255 49.1821C136.154 49.0533 135.933 47.7092 135.767 46.1903C135.597 44.6714 135.376 43.2722 135.275 43.0834C135.174 42.8947 135.086 40.8235 135.077 38.4807C135.072 36.1378 135.16 33.6017 135.27 32.8422C135.376 32.0828 135.823 30.2187 136.255 28.6997C136.688 27.1808 137.516 24.9024 138.101 23.6367C138.686 22.3709 140.016 20.1938 141.061 18.8037C142.101 17.4091 143.67 15.7015 144.545 15.0064C145.419 14.3114 146.137 13.3264 146.137 12.8201C146.137 12.3138 145.774 11.7753 145.332 11.6234C144.89 11.4715 143.804 11.0849 141.305 10.1781L142.8 9.42786C143.808 8.92155 145.231 8.71442 150.05 8.90774L150.165 7.06663C150.248 5.77784 150.731 4.68238 151.776 3.42122C152.862 2.11403 153.447 1.7366 153.902 2.04038C154.353 2.34417 154.436 2.92412 154.197 4.07481C154.013 4.95855 153.783 5.94355 153.681 6.26114C153.585 6.57873 153.815 6.93775 154.192 7.06663C154.57 7.1909 155.969 6.61095 157.299 5.76864C158.629 4.92633 160.908 3.68358 162.362 3.00697C163.817 2.33036 166.302 1.47424 167.886 1.11062Z" fill="#D27056"/>
<path d="M1495.01 255.45C1487.85 255.45 1480.76 254.34 1473.77 252.122C1466.77 249.903 1461.05 246.831 1456.61 242.906L1471.21 214.49C1474.28 217.22 1477.78 219.354 1481.7 220.89C1485.8 222.426 1489.81 223.194 1493.73 223.194C1499.37 223.194 1503.8 221.828 1507.05 219.098C1510.46 216.538 1513.53 212.186 1516.26 206.042L1523.43 189.146L1526.5 184.794L1575.91 66.0097H1614.31L1552.1 212.186C1547.67 223.279 1542.55 231.983 1536.74 238.298C1531.11 244.612 1524.8 249.05 1517.8 251.61C1510.97 254.17 1503.38 255.45 1495.01 255.45ZM1518.57 209.114L1457.13 66.0097H1498.34L1545.96 181.21L1518.57 209.114Z" fill="#3D405B"/>
<path d="M1421.95 203.738V176.858L1419.39 170.97V122.842C1419.39 114.308 1416.74 107.652 1411.45 102.874C1406.33 98.0951 1398.39 95.7057 1387.64 95.7057C1380.3 95.7057 1373.05 96.9004 1365.88 99.2897C1358.89 101.508 1352.91 104.58 1347.96 108.506L1333.63 80.6017C1341.14 75.3111 1350.18 71.2151 1360.76 68.3137C1371.34 65.4124 1382.1 63.9617 1393.02 63.9617C1414.01 63.9617 1430.31 68.9111 1441.91 78.8097C1453.52 88.7084 1459.32 104.154 1459.32 125.146V203.738H1421.95ZM1379.96 205.786C1369.21 205.786 1359.99 203.994 1352.31 200.41C1344.63 196.655 1338.75 191.62 1334.65 185.306C1330.55 178.991 1328.51 171.908 1328.51 164.058C1328.51 155.866 1330.47 148.698 1334.39 142.554C1338.49 136.41 1344.89 131.631 1353.59 128.218C1362.3 124.634 1373.65 122.842 1387.64 122.842H1424.25V146.138H1391.99C1382.61 146.138 1376.12 147.674 1372.54 150.746C1369.13 153.818 1367.42 157.658 1367.42 162.266C1367.42 167.386 1369.38 171.482 1373.31 174.554C1377.4 177.455 1382.95 178.906 1389.95 178.906C1396.6 178.906 1402.58 177.37 1407.87 174.298C1413.16 171.055 1417 166.362 1419.39 160.218L1425.53 178.65C1422.63 187.524 1417.34 194.266 1409.66 198.874C1401.98 203.482 1392.08 205.786 1379.96 205.786Z" fill="#3D405B"/>
<path d="M1141.38 203.738L1091.72 66.0097H1129.35L1170.57 184.538H1152.65L1195.66 66.0097H1229.45L1271.18 184.538H1253.26L1295.75 66.0097H1331.08L1281.16 203.738H1242.5L1205.9 102.106H1217.67L1179.78 203.738H1141.38Z" fill="#3D405B"/>
<path d="M1004.84 203.738V176.858L1002.28 170.97V122.842C1002.28 114.308 999.631 107.652 994.34 102.874C989.22 98.0951 981.284 95.7057 970.532 95.7057C963.194 95.7057 955.94 96.9004 948.772 99.2897C941.775 101.508 935.802 104.58 930.852 108.506L916.516 80.6017C924.026 75.3111 933.071 71.2151 943.652 68.3137C954.234 65.4124 964.986 63.9617 975.908 63.9617C996.9 63.9617 1013.2 68.9111 1024.8 78.8097C1036.41 88.7084 1042.21 104.154 1042.21 125.146V203.738H1004.84ZM962.852 205.786C952.1 205.786 942.884 203.994 935.204 200.41C927.524 196.655 921.636 191.62 917.54 185.306C913.444 178.991 911.396 171.908 911.396 164.058C911.396 155.866 913.359 148.698 917.284 142.554C921.38 136.41 927.78 131.631 936.484 128.218C945.188 124.634 956.538 122.842 970.532 122.842H1007.14V146.138H974.884C965.498 146.138 959.012 147.674 955.428 150.746C952.015 153.818 950.308 157.658 950.308 162.266C950.308 167.386 952.271 171.482 956.196 174.554C960.292 177.455 965.839 178.906 972.836 178.906C979.492 178.906 985.466 177.37 990.756 174.298C996.047 171.055 999.887 166.362 1002.28 160.218L1008.42 178.65C1005.52 187.524 1000.23 194.266 992.548 198.874C984.868 203.482 974.97 205.786 962.852 205.786Z" fill="#3D405B"/>
<path d="M760.462 205.786C747.492 205.786 735.801 202.884 725.39 197.082C714.98 191.108 706.702 182.831 700.558 172.25C694.585 161.668 691.598 149.21 691.598 134.874C691.598 120.367 694.585 107.823 700.558 97.2417C706.702 86.6604 714.98 78.4684 725.39 72.6657C735.801 66.8631 747.492 63.9617 760.462 63.9617C772.068 63.9617 782.222 66.5217 790.926 71.6417C799.63 76.7617 806.372 84.5271 811.15 94.9377C815.929 105.348 818.318 118.66 818.318 134.874C818.318 150.916 816.014 164.228 811.406 174.81C806.798 185.22 800.142 192.986 791.438 198.106C782.905 203.226 772.58 205.786 760.462 205.786ZM767.375 173.018C773.86 173.018 779.748 171.482 785.038 168.41C790.329 165.338 794.51 160.986 797.582 155.354C800.825 149.551 802.446 142.724 802.446 134.874C802.446 126.852 800.825 120.026 797.582 114.394C794.51 108.762 790.329 104.41 785.038 101.338C779.748 98.2657 773.86 96.7297 767.375 96.7297C760.719 96.7297 754.745 98.2657 749.455 101.338C744.164 104.41 739.897 108.762 736.655 114.394C733.583 120.026 732.046 126.852 732.046 134.874C732.046 142.724 733.583 149.551 736.655 155.354C739.897 160.986 744.164 165.338 749.455 168.41C754.745 171.482 760.719 173.018 767.375 173.018ZM803.47 203.738V175.578L804.239 134.618L801.678 93.9137V13.7857H841.614V203.738H803.47Z" fill="#3D405B"/>
<path d="M622.398 63.9617C633.321 63.9617 643.049 66.1804 651.582 70.6177C660.286 74.8844 667.113 81.5404 672.062 90.5857C677.012 99.4604 679.486 110.895 679.486 124.89V203.738H639.55V131.034C639.55 119.94 637.076 111.748 632.126 106.458C627.348 101.167 620.521 98.5217 611.646 98.5217C605.332 98.5217 599.614 99.8871 594.494 102.618C589.545 105.178 585.62 109.188 582.719 114.65C579.988 120.111 578.622 127.108 578.622 135.642V203.738H538.686V66.0097H576.83V104.154L569.662 92.6337C574.612 83.4177 581.694 76.3351 590.91 71.3857C600.126 66.4364 610.622 63.9617 622.398 63.9617Z" fill="#3D405B"/>
<path d="M380.411 203.738V62.9377C380.411 47.4071 385.019 35.0337 394.235 25.8177C403.451 16.4311 416.592 11.7377 433.659 11.7377C439.461 11.7377 445.008 12.3351 450.299 13.5297C455.76 14.7244 460.368 16.6017 464.123 19.1617L453.626 48.0897C451.408 46.5537 448.933 45.3591 446.203 44.5057C443.472 43.6524 440.571 43.2257 437.499 43.2257C431.696 43.2257 427.173 44.9324 423.931 48.3457C420.859 51.5884 419.323 56.5377 419.323 63.1937V75.9937L420.347 93.1457V203.738H380.411ZM359.163 99.8017V69.0817H454.651V99.8017H359.163ZM477.178 203.738V66.0097H517.114V203.738H477.178ZM497.146 46.8097C489.808 46.8097 483.834 44.6764 479.226 40.4097C474.618 36.1431 472.315 30.8524 472.315 24.5377C472.315 18.2231 474.618 12.9324 479.226 8.66575C483.834 4.39907 489.808 2.26574 497.146 2.26574C504.485 2.26574 510.458 4.31374 515.066 8.40975C519.674 12.3351 521.979 17.4551 521.979 23.7697C521.979 30.4257 519.674 35.9724 515.066 40.4097C510.629 44.6764 504.656 46.8097 497.146 46.8097Z" fill="#3D405B"/>
</svg>
